<svg width="59" height="59" viewBox="0 0 59 59" fill="none" xmlns="http://www.w3.org/2000/svg">
<path d="M4.91663 29.5C4.91663 28.848 5.17563 28.2227 5.63666 27.7617C6.09768 27.3006 6.72297 27.0416 7.37496 27.0416H26.0239L20.3845 21.4071C20.1559 21.1786 19.9746 20.9072 19.8509 20.6086C19.7272 20.31 19.6635 19.9899 19.6635 19.6666C19.6635 19.3434 19.7272 19.0233 19.8509 18.7247C19.9746 18.4261 20.1559 18.1547 20.3845 17.9261C20.613 17.6976 20.8844 17.5163 21.183 17.3926C21.4816 17.2689 21.8017 17.2052 22.125 17.2052C22.4482 17.2052 22.7683 17.2689 23.0669 17.3926C23.3655 17.5163 23.6369 17.6976 23.8655 17.9261L33.6988 27.7595C33.9277 27.9878 34.1094 28.2591 34.2333 28.5578C34.3572 28.8564 34.421 29.1766 34.421 29.5C34.421 29.8233 34.3572 30.1435 34.2333 30.4422C34.1094 30.7408 33.9277 31.0121 33.6988 31.2405L23.8655 41.0738C23.6369 41.3024 23.3655 41.4837 23.0669 41.6074C22.7683 41.7311 22.4482 41.7947 22.125 41.7947C21.8017 41.7947 21.4816 41.7311 21.183 41.6074C20.8844 41.4837 20.613 41.3024 20.3845 41.0738C20.1559 40.8452 19.9746 40.5739 19.8509 40.2753C19.7272 39.9766 19.6635 39.6565 19.6635 39.3333C19.6635 39.0101 19.7272 38.69 19.8509 38.3914C19.9746 38.0927 20.1559 37.8214 20.3845 37.5928L26.0239 31.9583H7.37496C6.72297 31.9583 6.09768 31.6993 5.63666 31.2383C5.17563 30.7772 4.91663 30.152 4.91663 29.5ZM54.0833 29.5C54.0833 27.544 53.3063 25.6681 51.9232 24.2851C50.5401 22.902 48.6643 22.125 46.7083 22.125C44.7523 22.125 42.8765 22.902 41.4934 24.2851C40.1103 25.6681 39.3333 27.544 39.3333 29.5C39.3333 31.4559 40.1103 33.3318 41.4934 34.7149C42.8765 36.098 44.7523 36.875 46.7083 36.875C48.6643 36.875 50.5401 36.098 51.9232 34.7149C53.3063 33.3318 54.0833 31.4559 54.0833 29.5Z" fill="#F99592" fill-opacity="0.45"/>
</svg>
