<svg width="38" height="38" viewBox="0 0 38 38" fill="none" xmlns="http://www.w3.org/2000/svg">
<path d="M31.2061 8.15369C31.8335 8.55084 32.3501 9.10038 32.7077 9.75109C33.0653 10.4018 33.2524 11.1325 33.2513 11.875V26.125C33.2513 30.0607 30.0621 33.25 26.1263 33.25H11.8763C11.1335 33.25 10.4027 33.0625 9.75164 32.7047C9.10062 32.3469 8.55051 31.8305 8.15234 31.2034L8.31791 31.2115L8.48349 31.2143H26.1263C27.4761 31.2143 28.7706 30.6781 29.725 29.7236C30.6794 28.7692 31.2156 27.4747 31.2156 26.125V8.48212C31.2158 8.37257 31.2126 8.26304 31.2061 8.15369ZM11.5371 18.3214C11.1771 18.3214 10.8319 18.4644 10.5774 18.7189C10.3229 18.9734 10.1799 19.3186 10.1799 19.6785C10.1799 20.0385 10.3229 20.3837 10.5774 20.6382C10.8319 20.8927 11.1771 21.0357 11.5371 21.0357C11.897 21.0357 12.2422 20.8927 12.4967 20.6382C12.7512 20.3837 12.8942 20.0385 12.8942 19.6785C12.8942 19.3186 12.7512 18.9734 12.4967 18.7189C12.2422 18.4644 11.897 18.3214 11.5371 18.3214Z" fill="#BD0A0A"/>
<path d="M25.4473 4.07141H8.48298C7.31319 4.07141 6.1913 4.53611 5.36413 5.36328C4.53696 6.19045 4.07227 7.31233 4.07227 8.48213V25.4464C4.07227 26.0256 4.18635 26.5992 4.40801 27.1343C4.62967 27.6695 4.95456 28.1557 5.36413 28.5653C5.77371 28.9748 6.25994 29.2997 6.79507 29.5214C7.33021 29.743 7.90376 29.8571 8.48298 29.8571H25.4473C26.0265 29.8571 26.6 29.743 27.1352 29.5214C27.6703 29.2997 28.1565 28.9748 28.5661 28.5653C28.9757 28.1557 29.3006 27.6695 29.5222 27.1343C29.7439 26.5992 29.858 26.0256 29.858 25.4464V8.48213C29.858 7.9029 29.7439 7.32935 29.5222 6.79422C29.3006 6.25909 28.9757 5.77285 28.5661 5.36328C28.1565 4.95371 27.6703 4.62882 27.1352 4.40716C26.6 4.1855 26.0265 4.07141 25.4473 4.07141ZM8.14369 19.6786C8.14369 18.7787 8.50115 17.9157 9.13744 17.2794C9.77372 16.6432 10.6367 16.2857 11.5366 16.2857C12.4364 16.2857 13.2994 16.6432 13.9357 17.2794C14.5719 17.9157 14.9294 18.7787 14.9294 19.6786C14.9294 20.5784 14.5719 21.4414 13.9357 22.0777C13.2994 22.714 12.4364 23.0714 11.5366 23.0714C10.6367 23.0714 9.77372 22.714 9.13744 22.0777C8.50115 21.4414 8.14369 20.5784 8.14369 19.6786ZM17.6437 19.3393C17.6437 19.0693 17.7509 18.8104 17.9418 18.6195C18.1327 18.4287 18.3916 18.3214 18.6616 18.3214H25.4473C25.7172 18.3214 25.9761 18.4287 26.167 18.6195C26.3579 18.8104 26.4651 19.0693 26.4651 19.3393C26.4651 19.6092 26.3579 19.8681 26.167 20.059C25.9761 20.2499 25.7172 20.3571 25.4473 20.3571H18.6616C18.3916 20.3571 18.1327 20.2499 17.9418 20.059C17.7509 19.8681 17.6437 19.6092 17.6437 19.3393ZM8.14369 12.5536C8.14369 12.2836 8.25093 12.0247 8.44182 11.8338C8.6327 11.6429 8.8916 11.5357 9.16155 11.5357H25.4473C25.7172 11.5357 25.9761 11.6429 26.167 11.8338C26.3579 12.0247 26.4651 12.2836 26.4651 12.5536C26.4651 12.8235 26.3579 13.0824 26.167 13.2733C25.9761 13.4642 25.7172 13.5714 25.4473 13.5714H9.16155C8.8916 13.5714 8.6327 13.4642 8.44182 13.2733C8.25093 13.0824 8.14369 12.8235 8.14369 12.5536Z" fill="#BD0A0A"/>
</svg>
