<svg width="38" height="38" viewBox="0 0 38 38" fill="none" xmlns="http://www.w3.org/2000/svg">
<path d="M33.25 13.4583V28.1042C33.25 29.4689 32.7079 30.7778 31.7428 31.7428C30.7778 32.7079 29.4689 33.25 28.1042 33.25H9.89583C8.53107 33.25 7.22221 32.7079 6.25718 31.7428C5.29215 30.7778 4.75 29.4689 4.75 28.1042V13.4583H33.25ZM11.4792 23.75C10.9543 23.75 10.4509 23.9585 10.0797 24.3297C9.70852 24.7009 9.5 25.2043 9.5 25.7292C9.5 26.2541 9.70852 26.7575 10.0797 27.1287C10.4509 27.4998 10.9543 27.7083 11.4792 27.7083C12.0041 27.7083 12.5075 27.4998 12.8786 27.1287C13.2498 26.7575 13.4583 26.2541 13.4583 25.7292C13.4583 25.2043 13.2498 24.7009 12.8786 24.3297C12.5075 23.9585 12.0041 23.75 11.4792 23.75ZM19 23.75C18.4751 23.75 17.9717 23.9585 17.6005 24.3297C17.2294 24.7009 17.0208 25.2043 17.0208 25.7292C17.0208 26.2541 17.2294 26.7575 17.6005 27.1287C17.9717 27.4998 18.4751 27.7083 19 27.7083C19.5249 27.7083 20.0283 27.4998 20.3995 27.1287C20.7706 26.7575 20.9792 26.2541 20.9792 25.7292C20.9792 25.2043 20.7706 24.7009 20.3995 24.3297C20.0283 23.9585 19.5249 23.75 19 23.75ZM11.4792 16.625C10.9543 16.625 10.4509 16.8335 10.0797 17.2047C9.70852 17.5759 9.5 18.0793 9.5 18.6042C9.5 19.1291 9.70852 19.6325 10.0797 20.0036C10.4509 20.3748 10.9543 20.5833 11.4792 20.5833C12.0041 20.5833 12.5075 20.3748 12.8786 20.0036C13.2498 19.6325 13.4583 19.1291 13.4583 18.6042C13.4583 18.0793 13.2498 17.5759 12.8786 17.2047C12.5075 16.8335 12.0041 16.625 11.4792 16.625ZM19 16.625C18.4751 16.625 17.9717 16.8335 17.6005 17.2047C17.2294 17.5759 17.0208 18.0793 17.0208 18.6042C17.0208 19.1291 17.2294 19.6325 17.6005 20.0036C17.9717 20.3748 18.4751 20.5833 19 20.5833C19.5249 20.5833 20.0283 20.3748 20.3995 20.0036C20.7706 19.6325 20.9792 19.1291 20.9792 18.6042C20.9792 18.0793 20.7706 17.5759 20.3995 17.2047C20.0283 16.8335 19.5249 16.625 19 16.625ZM26.5208 16.625C25.9959 16.625 25.4925 16.8335 25.1214 17.2047C24.7502 17.5759 24.5417 18.0793 24.5417 18.6042C24.5417 19.1291 24.7502 19.6325 25.1214 20.0036C25.4925 20.3748 25.9959 20.5833 26.5208 20.5833C27.0457 20.5833 27.5492 20.3748 27.9203 20.0036C28.2915 19.6325 28.5 19.1291 28.5 18.6042C28.5 18.0793 28.2915 17.5759 27.9203 17.2047C27.5492 16.8335 27.0457 16.625 26.5208 16.625ZM28.1042 4.75C29.4689 4.75 30.7778 5.29215 31.7428 6.25718C32.7079 7.22221 33.25 8.53107 33.25 9.89583V11.0833H4.75V9.89583C4.75 8.53107 5.29215 7.22221 6.25718 6.25718C7.22221 5.29215 8.53107 4.75 9.89583 4.75H28.1042Z" fill="white"/>
</svg>
