<svg width="34" height="20" viewBox="0 0 34 20" fill="none" xmlns="http://www.w3.org/2000/svg">
<path d="M3.35945 19.5C2.63111 19.5 2.02259 19.2562 1.53386 18.7685C1.04514 18.2808 0.800781 17.6723 0.800781 16.9429V3.05708C0.800781 2.32875 1.04514 1.72075 1.53386 1.23308C2.02259 0.745416 2.63059 0.501056 3.35786 0.5H17.2437C17.972 0.5 18.5806 0.744361 19.0693 1.23308C19.558 1.72181 19.8018 2.33033 19.8008 3.05867V16.9429C19.8008 17.6713 19.5569 18.2798 19.0693 18.7685C18.5816 19.2572 17.9731 19.5011 17.2437 19.5H3.35945ZM24.9165 19.5V0.5H26.4999V19.5H24.9165ZM31.614 19.5V0.5H33.1974V19.5H31.614Z" fill="#BD0A0A"/>
</svg>
