<svg width="116" height="116" viewBox="0 0 116 116" fill="none" xmlns="http://www.w3.org/2000/svg">
<circle cx="58" cy="58" r="57.5" fill="#D9D9D9" stroke="black"/>
<path d="M28.6024 63.792H34.2424V66H25.8664V49.32H28.6024V63.792ZM44.1385 66.168C42.5865 66.168 41.1545 65.808 39.8425 65.088C38.5465 64.352 37.5145 63.336 36.7465 62.04C35.9945 60.728 35.6185 59.256 35.6185 57.624C35.6185 55.992 35.9945 54.528 36.7465 53.232C37.5145 51.936 38.5465 50.928 39.8425 50.208C41.1545 49.472 42.5865 49.104 44.1385 49.104C45.7065 49.104 47.1385 49.472 48.4345 50.208C49.7465 50.928 50.7785 51.936 51.5305 53.232C52.2825 54.528 52.6585 55.992 52.6585 57.624C52.6585 59.256 52.2825 60.728 51.5305 62.04C50.7785 63.336 49.7465 64.352 48.4345 65.088C47.1385 65.808 45.7065 66.168 44.1385 66.168ZM44.1385 63.792C45.2425 63.792 46.2265 63.544 47.0905 63.048C47.9545 62.536 48.6265 61.816 49.1065 60.888C49.6025 59.944 49.8505 58.856 49.8505 57.624C49.8505 56.392 49.6025 55.312 49.1065 54.384C48.6265 53.456 47.9545 52.744 47.0905 52.248C46.2265 51.752 45.2425 51.504 44.1385 51.504C43.0345 51.504 42.0505 51.752 41.1865 52.248C40.3225 52.744 39.6425 53.456 39.1465 54.384C38.6665 55.312 38.4265 56.392 38.4265 57.624C38.4265 58.856 38.6665 59.944 39.1465 60.888C39.6425 61.816 40.3225 62.536 41.1865 63.048C42.0505 63.544 43.0345 63.792 44.1385 63.792ZM67.4228 54.12C66.9908 53.288 66.3908 52.664 65.6228 52.248C64.8548 51.816 63.9668 51.6 62.9588 51.6C61.8548 51.6 60.8708 51.848 60.0068 52.344C59.1428 52.84 58.4628 53.544 57.9668 54.456C57.4868 55.368 57.2468 56.424 57.2468 57.624C57.2468 58.824 57.4868 59.888 57.9668 60.816C58.4628 61.728 59.1428 62.432 60.0068 62.928C60.8708 63.424 61.8548 63.672 62.9588 63.672C64.4468 63.672 65.6548 63.256 66.5828 62.424C67.5108 61.592 68.0788 60.464 68.2868 59.04H62.0228V56.856H71.2148V58.992C71.0388 60.288 70.5748 61.48 69.8228 62.568C69.0868 63.656 68.1188 64.528 66.9188 65.184C65.7348 65.824 64.4148 66.144 62.9588 66.144C61.3908 66.144 59.9588 65.784 58.6628 65.064C57.3668 64.328 56.3348 63.312 55.5668 62.016C54.8148 60.72 54.4388 59.256 54.4388 57.624C54.4388 55.992 54.8148 54.528 55.5668 53.232C56.3348 51.936 57.3668 50.928 58.6628 50.208C59.9748 49.472 61.4068 49.104 62.9588 49.104C64.7348 49.104 66.3108 49.544 67.6868 50.424C69.0788 51.288 70.0868 52.52 70.7108 54.12H67.4228ZM81.5213 66.168C79.9693 66.168 78.5373 65.808 77.2253 65.088C75.9293 64.352 74.8973 63.336 74.1293 62.04C73.3773 60.728 73.0013 59.256 73.0013 57.624C73.0013 55.992 73.3773 54.528 74.1293 53.232C74.8973 51.936 75.9293 50.928 77.2253 50.208C78.5373 49.472 79.9693 49.104 81.5213 49.104C83.0893 49.104 84.5213 49.472 85.8173 50.208C87.1293 50.928 88.1613 51.936 88.9133 53.232C89.6653 54.528 90.0413 55.992 90.0413 57.624C90.0413 59.256 89.6653 60.728 88.9133 62.04C88.1613 63.336 87.1293 64.352 85.8173 65.088C84.5213 65.808 83.0893 66.168 81.5213 66.168ZM81.5213 63.792C82.6253 63.792 83.6093 63.544 84.4733 63.048C85.3373 62.536 86.0093 61.816 86.4893 60.888C86.9853 59.944 87.2333 58.856 87.2333 57.624C87.2333 56.392 86.9853 55.312 86.4893 54.384C86.0093 53.456 85.3373 52.744 84.4733 52.248C83.6093 51.752 82.6253 51.504 81.5213 51.504C80.4173 51.504 79.4333 51.752 78.5693 52.248C77.7053 52.744 77.0253 53.456 76.5293 54.384C76.0493 55.312 75.8093 56.392 75.8093 57.624C75.8093 58.856 76.0493 59.944 76.5293 60.888C77.0253 61.816 77.7053 62.536 78.5693 63.048C79.4333 63.544 80.4173 63.792 81.5213 63.792Z" fill="black"/>
</svg>
