<svg width="32" height="26" viewBox="0 0 32 26" fill="none" xmlns="http://www.w3.org/2000/svg">
<path fill-rule="evenodd" clip-rule="evenodd" d="M2.02266 2.18892C0.166992 4.043 0.166992 7.02917 0.166992 12.9999C0.166992 18.9707 0.166992 21.9568 2.02266 23.8109C3.87833 25.665 6.86291 25.6666 12.8337 25.6666H19.167C25.1377 25.6666 28.1239 25.6666 29.978 23.8109C31.8321 21.9553 31.8337 18.9707 31.8337 12.9999C31.8337 7.02917 31.8337 4.043 29.978 2.18892C28.1223 0.334835 25.1377 0.333252 19.167 0.333252H12.8337C6.86291 0.333252 3.87674 0.333252 2.02266 2.18892ZM26.4123 5.90659C26.6138 6.1485 26.711 6.46052 26.6825 6.77405C26.654 7.08759 26.5021 7.37697 26.2603 7.57859L22.7833 10.4761C21.3789 11.6478 20.2421 12.5946 19.2367 13.2406C18.1917 13.9135 17.1736 14.3378 16.0003 14.3378C14.8271 14.3378 13.809 13.9119 12.7624 13.2406C11.7586 12.5946 10.6217 11.6462 9.21733 10.4777L5.74032 7.58017C5.49824 7.3786 5.34614 7.08913 5.31748 6.77542C5.28883 6.46171 5.38597 6.14946 5.58753 5.90738C5.7891 5.66529 6.07858 5.51319 6.39228 5.48453C6.70599 5.45588 7.01824 5.55302 7.26033 5.75459L10.6803 8.603C12.1576 9.83325 13.182 10.6851 14.0497 11.2424C14.8872 11.7808 15.4557 11.9628 16.0019 11.9628C16.5482 11.9628 17.1166 11.7823 17.9542 11.2424C18.8202 10.6851 19.8462 9.83325 21.3235 8.603L24.7419 5.753C24.984 5.55171 25.2962 5.45481 25.6097 5.48361C25.9232 5.51241 26.2109 5.66455 26.4123 5.90659Z" fill="white"/>
</svg>
