<svg width="38" height="38" viewBox="0 0 38 38" fill="none" xmlns="http://www.w3.org/2000/svg">
<path fill-rule="evenodd" clip-rule="evenodd" d="M5.02266 8.18898C3.16699 10.0431 3.16699 13.0292 3.16699 19C3.16699 24.9707 3.16699 27.9569 5.02266 29.811C6.87833 31.6651 9.86291 31.6666 15.8337 31.6666H22.167C28.1377 31.6666 31.1239 31.6666 32.978 29.811C34.8321 27.9553 34.8337 24.9707 34.8337 19C34.8337 13.0292 34.8337 10.0431 32.978 8.18898C31.1223 6.3349 28.1377 6.33331 22.167 6.33331H15.8337C9.86291 6.33331 6.87674 6.33331 5.02266 8.18898ZM29.4123 11.9066C29.6138 12.1486 29.711 12.4606 29.6825 12.7741C29.654 13.0876 29.5021 13.377 29.2603 13.5786L25.7833 16.4761C24.3789 17.6478 23.2421 18.5946 22.2367 19.2406C21.1917 19.9136 20.1736 20.3379 19.0003 20.3379C17.8271 20.3379 16.809 19.912 15.7624 19.2406C14.7586 18.5946 13.6217 17.6462 12.2173 16.4777L8.74032 13.5802C8.49824 13.3787 8.34614 13.0892 8.31748 12.7755C8.28883 12.4618 8.38597 12.1495 8.58753 11.9074C8.7891 11.6654 9.07858 11.5132 9.39228 11.4846C9.70599 11.4559 10.0182 11.5531 10.2603 11.7546L13.6803 14.6031C15.1576 15.8333 16.182 16.6851 17.0497 17.2425C17.8872 17.7808 18.4557 17.9629 19.0019 17.9629C19.5482 17.9629 20.1166 17.7824 20.9542 17.2425C21.8202 16.6851 22.8462 15.8333 24.3235 14.6031L27.7419 11.7531C27.984 11.5518 28.2962 11.4549 28.6097 11.4837C28.9232 11.5125 29.2109 11.6646 29.4123 11.9066Z" fill="#BD0A0A"/>
</svg>
