<svg width="45" height="45" viewBox="0 0 45 45" fill="none" xmlns="http://www.w3.org/2000/svg">
<circle cx="22.5" cy="22.5" r="22.5" fill="#BD0A0A"/>
<path d="M9.53792 26.8146C9.07592 26.8146 8.65126 26.7073 8.26392 26.4926C7.88126 26.278 7.57559 25.9793 7.34692 25.5966C7.12292 25.2093 7.01092 24.7753 7.01092 24.2946C7.01092 23.814 7.12292 23.3823 7.34692 22.9996C7.57559 22.617 7.88126 22.3183 8.26392 22.1036C8.65126 21.889 9.07592 21.7816 9.53792 21.7816C9.99992 21.7816 10.4223 21.889 10.8049 22.1036C11.1923 22.3183 11.4956 22.617 11.7149 22.9996C11.9389 23.3823 12.0509 23.814 12.0509 24.2946C12.0509 24.7753 11.9389 25.2093 11.7149 25.5966C11.4909 25.9793 11.1876 26.278 10.8049 26.4926C10.4223 26.7073 9.99992 26.8146 9.53792 26.8146ZM9.53792 25.7226C9.92992 25.7226 10.2426 25.592 10.4759 25.3306C10.7139 25.0693 10.8329 24.724 10.8329 24.2946C10.8329 23.8606 10.7139 23.5153 10.4759 23.2586C10.2426 22.9973 9.92992 22.8666 9.53792 22.8666C9.14126 22.8666 8.82392 22.995 8.58592 23.2516C8.35259 23.5083 8.23592 23.856 8.23592 24.2946C8.23592 24.7286 8.35259 25.0763 8.58592 25.3376C8.82392 25.5943 9.14126 25.7226 9.53792 25.7226ZM14.5579 21.8516C15.0759 21.8516 15.5285 21.9543 15.9159 22.1596C16.3032 22.365 16.6019 22.6543 16.8119 23.0276C17.0265 23.3963 17.1339 23.8233 17.1339 24.3086C17.1339 24.7893 17.0265 25.2163 16.8119 25.5896C16.6019 25.963 16.3009 26.2523 15.9089 26.4576C15.5215 26.663 15.0712 26.7656 14.5579 26.7656H12.7169V21.8516H14.5579ZM14.4809 25.7296C14.9335 25.7296 15.2859 25.606 15.5379 25.3586C15.7899 25.1113 15.9159 24.7613 15.9159 24.3086C15.9159 23.856 15.7899 23.5036 15.5379 23.2516C15.2859 22.9996 14.9335 22.8736 14.4809 22.8736H13.9139V25.7296H14.4809ZM19.6438 21.8516C20.1618 21.8516 20.6145 21.9543 21.0018 22.1596C21.3891 22.365 21.6878 22.6543 21.8978 23.0276C22.1125 23.3963 22.2198 23.8233 22.2198 24.3086C22.2198 24.7893 22.1125 25.2163 21.8978 25.5896C21.6878 25.963 21.3868 26.2523 20.9948 26.4576C20.6075 26.663 20.1571 26.7656 19.6438 26.7656H17.8028V21.8516H19.6438ZM19.5668 25.7296C20.0195 25.7296 20.3718 25.606 20.6238 25.3586C20.8758 25.1113 21.0018 24.7613 21.0018 24.3086C21.0018 23.856 20.8758 23.5036 20.6238 23.2516C20.3718 22.9996 20.0195 22.8736 19.5668 22.8736H18.9998V25.7296H19.5668ZM24.0857 21.8516V26.7656H22.8887V21.8516H24.0857ZM28.4882 21.8516V22.8106H27.1862V26.7656H25.9892V22.8106H24.6872V21.8516H28.4882ZM31.4129 26.8146C30.9509 26.8146 30.5263 26.7073 30.1389 26.4926C29.7563 26.278 29.4506 25.9793 29.2219 25.5966C28.9979 25.2093 28.8859 24.7753 28.8859 24.2946C28.8859 23.814 28.9979 23.3823 29.2219 22.9996C29.4506 22.617 29.7563 22.3183 30.1389 22.1036C30.5263 21.889 30.9509 21.7816 31.4129 21.7816C31.8749 21.7816 32.2973 21.889 32.6799 22.1036C33.0673 22.3183 33.3706 22.617 33.5899 22.9996C33.8139 23.3823 33.9259 23.814 33.9259 24.2946C33.9259 24.7753 33.8139 25.2093 33.5899 25.5966C33.3659 25.9793 33.0626 26.278 32.6799 26.4926C32.2973 26.7073 31.8749 26.8146 31.4129 26.8146ZM31.4129 25.7226C31.8049 25.7226 32.1176 25.592 32.3509 25.3306C32.5889 25.0693 32.7079 24.724 32.7079 24.2946C32.7079 23.8606 32.5889 23.5153 32.3509 23.2586C32.1176 22.9973 31.8049 22.8666 31.4129 22.8666C31.0163 22.8666 30.6989 22.995 30.4609 23.2516C30.2276 23.5083 30.1109 23.856 30.1109 24.2946C30.1109 24.7286 30.2276 25.0763 30.4609 25.3376C30.6989 25.5943 31.0163 25.7226 31.4129 25.7226ZM37.0979 26.7656L36.0759 24.9106H35.7889V26.7656H34.5919V21.8516H36.6009C36.9882 21.8516 37.3172 21.9193 37.5879 22.0546C37.8632 22.19 38.0685 22.3766 38.2039 22.6146C38.3392 22.848 38.4069 23.1093 38.4069 23.3986C38.4069 23.7253 38.3135 24.017 38.1269 24.2736C37.9449 24.5303 37.6742 24.7123 37.3149 24.8196L38.4489 26.7656H37.0979ZM35.7889 24.0636H36.5309C36.7502 24.0636 36.9135 24.01 37.0209 23.9026C37.1329 23.7953 37.1889 23.6436 37.1889 23.4476C37.1889 23.261 37.1329 23.114 37.0209 23.0066C36.9135 22.8993 36.7502 22.8456 36.5309 22.8456H35.7889V24.0636Z" fill="white"/>
</svg>
