<svg width="85" height="85" viewBox="0 0 85 85" fill="none" xmlns="http://www.w3.org/2000/svg">
<ellipse cx="42.1554" cy="42.5" rx="42.1554" ry="42.5" fill="#BD0A0A" fill-opacity="0.15"/>
<path d="M18.6504 64.2747C21.8173 64.2747 24.4048 61.6627 24.4048 58.466V21.041H58.0046V58.466C58.0046 61.6627 55.417 64.2747 52.2502 64.2747" fill="#18181B"/>
<path d="M46.4963 58.4658V54.0605H12.8965V58.4658C12.8965 61.6625 15.4841 64.2745 18.6509 64.2745H52.2507C49.0838 64.2745 46.4963 61.6625 46.4963 58.4658Z" fill="#868686"/>
<path d="M34.7166 28.4868H30.4297V30.3581H34.7166V28.4868Z" fill="white"/>
<path d="M51.2086 28.4868H38.0391V30.3581H51.2086V28.4868Z" fill="#868686"/>
<path d="M34.7166 35.1143H30.4297V36.9855H34.7166V35.1143Z" fill="white"/>
<path d="M51.2086 35.1143H38.0391V36.9855H51.2086V35.1143Z" fill="#868686"/>
<path d="M34.7166 41.7417H30.4297V43.6129H34.7166V41.7417Z" fill="white"/>
<path d="M51.2086 41.7417H38.0391V43.6129H51.2086V41.7417Z" fill="#868686"/>
<path d="M34.7166 48.3691H30.4297V50.2404H34.7166V48.3691Z" fill="white"/>
<path d="M51.2086 48.3691H38.0391V50.2404H51.2086V48.3691Z" fill="#868686"/>
<path opacity="0.1" d="M58.0043 48.681V26.4209C57.5409 26.3429 57.0388 26.304 56.5367 26.304C50.3961 26.304 45.4141 31.3329 45.4141 37.5315C45.4141 43.73 50.3961 48.7589 56.5367 48.7589C57.0388 48.7979 57.5409 48.759 58.0043 48.681Z" fill="#0C1E5B"/>
<path d="M60.4392 46.537C66.5822 46.537 71.562 41.5102 71.562 35.3094C71.562 29.1086 66.5822 24.0818 60.4392 24.0818C54.2962 24.0818 49.3164 29.1086 49.3164 35.3094C49.3164 41.5102 54.2962 46.537 60.4392 46.537Z" fill="#868686"/>
<path d="M62.4073 36.0888V29.1106H58.468V36.0888H55.8418L60.4376 41.5076L65.0335 36.0888H62.4073Z" fill="white"/>
</svg>
