<svg width="38" height="38" viewBox="0 0 38 38" fill="none" xmlns="http://www.w3.org/2000/svg">
<path d="M5.35945 28.5C4.63111 28.5 4.02259 28.2562 3.53386 27.7685C3.04514 27.2808 2.80078 26.6723 2.80078 25.9429V12.0571C2.80078 11.3287 3.04514 10.7207 3.53386 10.2331C4.02259 9.74542 4.63059 9.50106 5.35786 9.5H19.2437C19.972 9.5 20.5806 9.74436 21.0693 10.2331C21.558 10.7218 21.8018 11.3303 21.8008 12.0587V25.9429C21.8008 26.6713 21.5569 27.2798 21.0693 27.7685C20.5816 28.2572 19.9731 28.5011 19.2437 28.5H5.35945ZM26.9165 28.5V9.5H28.4999V28.5H26.9165ZM33.614 28.5V9.5H35.1974V28.5H33.614Z" fill="white"/>
</svg>
