<svg width="36" height="36" viewBox="0 0 36 36" fill="none" xmlns="http://www.w3.org/2000/svg">
<path fill-rule="evenodd" clip-rule="evenodd" d="M14.1241 19.4999C13.7312 20.3991 13.5096 21.3902 13.5003 22.4319L13.5 22.5V31.5H4.5V25.5C4.5 22.2181 7.13159 19.5538 10.4008 19.5008L10.5 19.5L14.1241 19.4999ZM25.5 16.5C28.8138 16.5 31.5 19.1863 31.5 22.5V31.5H15V22.5C15 19.1863 17.6863 16.5 21 16.5H25.5ZM12 9C14.4811 9 16.5 11.019 16.5 13.5C16.5 15.981 14.4811 18 12 18C9.51905 18 7.50002 15.981 7.50002 13.5C7.50002 11.019 9.51905 9 12 9ZM23.25 4.5C26.1451 4.5 28.5 6.85498 28.5 9.75002C28.5 12.6451 26.1451 15 23.2501 15C20.355 15 18.0001 12.645 18.0001 9.75002C18 6.85498 20.355 4.5 23.25 4.5Z" fill="white"/>
</svg>
