<svg width="43" height="43" viewBox="0 0 43 43" fill="none" xmlns="http://www.w3.org/2000/svg">
<path d="M32.3849 2.7843L39.8615 10.5781V40.2158H11.9316V40.3125H39.9569V10.6761L32.3849 2.7843Z" fill="#909090"/>
<path d="M32.2918 2.6875H11.8359V40.2157H39.8612V10.5793L32.2918 2.6875Z" fill="#F4F4F4"/>
<path d="M11.6305 4.70312H3.04395V13.8769H30.0533V4.70312H11.6305Z" fill="#7A7B7C"/>
<path d="M30.1972 13.721H3.21875V4.54053H30.1972V13.721Z" fill="#DD2025"/>
<path d="M12.1635 6.09258H10.4072V12.5426H11.7886V10.3671L12.0936 10.3845C12.3901 10.3804 12.6839 10.3273 12.963 10.2273C13.2084 10.144 13.434 10.0109 13.6255 9.83627C13.8219 9.67158 13.9762 9.46245 14.0757 9.22621C14.2117 8.83479 14.2599 8.41822 14.2168 8.00608C14.2091 7.7116 14.1575 7.41992 14.0636 7.14071C13.979 6.93889 13.8531 6.75696 13.6942 6.60655C13.5352 6.45615 13.3466 6.34059 13.1404 6.26727C12.9627 6.20144 12.7784 6.15459 12.5908 6.12752C12.4491 6.10444 12.3058 6.09276 12.1622 6.09258M11.9082 9.17515H11.7886V7.1864H12.0479C12.1624 7.17814 12.2773 7.19571 12.384 7.23781C12.4908 7.27991 12.5867 7.34546 12.6647 7.42961C12.8264 7.64598 12.9128 7.90934 12.9106 8.17943C12.9106 8.50999 12.9106 8.80965 12.6123 9.02061C12.3975 9.13896 12.1528 9.19354 11.9082 9.17515ZM16.8411 6.07512C16.6919 6.07512 16.5468 6.08587 16.4447 6.0899L16.1249 6.09796H15.0768V12.548H16.3103C16.7817 12.5601 17.2509 12.4802 17.6917 12.3128C18.0466 12.1726 18.3607 11.9458 18.6054 11.653C18.8452 11.3589 19.0165 11.0151 19.1067 10.6466C19.2126 10.2299 19.2641 9.80124 19.2599 9.37133C19.2862 8.86361 19.2469 8.3546 19.1429 7.85693C19.0435 7.49101 18.8593 7.15361 18.6054 6.87196C18.4063 6.64421 18.1613 6.46105 17.8865 6.33446C17.6511 6.22535 17.4035 6.14504 17.1488 6.09527C17.0476 6.07867 16.945 6.07103 16.8424 6.07243M16.5979 11.3628H16.4635V7.24552H16.481C16.758 7.21349 17.0383 7.26348 17.2872 7.3893C17.4695 7.53487 17.6181 7.71825 17.7226 7.9268C17.8354 8.14628 17.9004 8.38718 17.9134 8.63362C17.9255 8.92924 17.9134 9.17112 17.9134 9.37133C17.9184 9.60196 17.9035 9.83259 17.8691 10.0607C17.8268 10.2946 17.7503 10.521 17.642 10.7326C17.5196 10.9299 17.3525 11.0956 17.1542 11.2163C16.9885 11.3238 16.7921 11.3739 16.5952 11.3587M23.4214 6.09796H20.1561V12.548H21.5375V9.98946H23.2844V8.79083H21.5375V7.29658H23.4188V6.09796" fill="#464648"/>
<path d="M29.2684 27.2177C29.2684 27.2177 33.5523 26.441 33.5523 27.9043C33.5523 29.3677 30.8984 28.7724 29.2684 27.2177ZM26.1012 27.3292C25.4205 27.4792 24.7571 27.6994 24.1219 27.9863L24.6594 26.7769C25.1969 25.5675 25.7545 23.9187 25.7545 23.9187C26.3943 24.9993 27.1407 26.0131 27.9824 26.9449C27.3487 27.0393 26.7207 27.1685 26.1012 27.3319V27.3292ZM24.4054 18.5948C24.4054 17.3196 24.8179 16.9716 25.1391 16.9716C25.4602 16.9716 25.8217 17.1261 25.8338 18.2333C25.729 19.3467 25.4959 20.4442 25.1391 21.504C24.6486 20.6148 24.3955 19.6143 24.404 18.5988L24.4054 18.5948ZM18.1583 32.7257C16.8441 31.9396 20.9143 29.5195 21.652 29.4416C21.648 29.4429 19.5343 33.5481 18.1583 32.7257ZM34.8033 28.0777C34.7899 27.9433 34.6689 26.4557 32.0218 26.5189C30.9183 26.4996 29.8153 26.5774 28.7255 26.7514C27.6692 25.6881 26.7599 24.4882 26.0219 23.1837C26.4866 21.839 26.7682 20.4379 26.8591 19.0181C26.8201 17.4056 26.4344 16.4811 25.1982 16.4945C23.9619 16.508 23.7819 17.5897 23.9445 19.1995C24.1036 20.2813 24.404 21.3376 24.8381 22.3412C24.8381 22.3412 24.267 24.119 23.5118 25.8873C22.7566 27.6557 22.2406 28.5829 22.2406 28.5829C20.9272 29.0099 19.6909 29.6451 18.5789 30.4642C17.4716 31.4948 17.0215 32.2863 17.6047 33.0777C18.1072 33.7604 19.8662 33.9149 21.4384 31.8549C22.2723 30.7899 23.0354 29.6713 23.7228 28.5063C23.7228 28.5063 26.12 27.8492 26.8658 27.6692C27.6116 27.4891 28.5132 27.3467 28.5132 27.3467C28.5132 27.3467 30.7022 29.5491 32.8132 29.4711C34.9243 29.3932 34.8221 28.2093 34.8087 28.0803" fill="#DD2025"/>
<path d="M32.1885 2.79102V10.6829H39.7578L32.1885 2.79102Z" fill="#909090"/>
<path d="M32.292 2.6875V10.5793H39.8613L32.292 2.6875Z" fill="#F4F4F4"/>
<path d="M12.06 5.98907H10.3037V12.4391H11.6905V10.2649L11.9968 10.2823C12.2933 10.2783 12.5871 10.2251 12.8662 10.1251C13.1116 10.0418 13.3372 9.90868 13.5287 9.7341C13.7236 9.56896 13.8766 9.35986 13.9748 9.12404C14.1109 8.73262 14.1591 8.31605 14.1159 7.90391C14.1083 7.60943 14.0566 7.31775 13.9627 7.03854C13.8781 6.83672 13.7523 6.65479 13.5934 6.50438C13.4344 6.35398 13.2458 6.23842 13.0396 6.1651C12.861 6.09862 12.6759 6.05133 12.4873 6.02401C12.3456 6.00093 12.2022 5.98924 12.0586 5.98907M11.8047 9.07163H11.6851V7.08288H11.9458C12.0602 7.07463 12.1751 7.0922 12.2818 7.1343C12.3886 7.17639 12.4845 7.24194 12.5626 7.3261C12.7242 7.54246 12.8106 7.80582 12.8085 8.07591C12.8085 8.40648 12.8085 8.70613 12.5101 8.9171C12.2953 9.03545 12.0506 9.08868 11.806 9.07029M16.7376 5.9716C16.5884 5.9716 16.4433 5.98235 16.3412 5.98638L16.0254 5.99444H14.9773V12.4444H16.2108C16.6822 12.4566 17.1514 12.3767 17.5922 12.2093C17.9471 12.0691 18.2613 11.8423 18.506 11.5495C18.7457 11.2554 18.917 10.9116 19.0072 10.543C19.1132 10.1264 19.1647 9.69773 19.1604 9.26782C19.1867 8.76009 19.1474 8.25109 19.0435 7.75341C18.944 7.3875 18.7599 7.05009 18.506 6.76844C18.3068 6.54069 18.0618 6.35753 17.7871 6.23094C17.5517 6.12183 17.304 6.04152 17.0493 5.99176C16.9481 5.97516 16.8456 5.96751 16.743 5.96891M16.4984 11.2593H16.364V7.14201H16.3815C16.6585 7.10997 16.9389 7.15997 17.1877 7.28579C17.37 7.43135 17.5186 7.61474 17.6231 7.82329C17.7359 8.04277 17.801 8.28366 17.8139 8.5301C17.826 8.82572 17.8139 9.0676 17.8139 9.26782C17.8189 9.49845 17.8041 9.72907 17.7696 9.95716C17.7273 10.1911 17.6508 10.4175 17.5425 10.629C17.4201 10.8264 17.253 10.9921 17.0547 11.1128C16.889 11.2203 16.6926 11.2703 16.4957 11.2552M23.3179 5.99444H20.0526V12.4444H21.434V9.88594H23.1809V8.68732H21.434V7.19307H23.3152V5.99444" fill="white"/>
</svg>
