<svg width="28" height="28" viewBox="0 0 28 28" fill="none" xmlns="http://www.w3.org/2000/svg">
<path d="M9.06736 2.84343L10.3227 2.44209C11.4999 2.06643 12.7575 2.67426 13.2615 3.86193L14.2649 6.22793C14.7012 7.25809 14.4585 8.47026 13.6652 9.22393L11.4544 11.3216C11.5909 12.5769 12.0132 13.8124 12.7202 15.0281C13.3916 16.2042 14.2921 17.2337 15.3685 18.0556L18.0239 17.1689C19.0295 16.8341 20.1262 17.2203 20.7422 18.1268L22.1807 20.2384C22.8982 21.2931 22.7687 22.7468 21.8785 23.6404L20.9254 24.5983C19.9757 25.5514 18.6189 25.8979 17.3647 25.5059C14.4014 24.5819 11.6795 21.8391 9.19453 17.2774C6.70603 12.7088 5.82753 8.83076 6.5602 5.64809C6.8682 4.30876 7.82136 3.24126 9.06736 2.84343Z" fill="white"/>
</svg>
