<svg width="38" height="38" viewBox="0 0 38 38" fill="none" xmlns="http://www.w3.org/2000/svg">
<path d="M31.2042 8.15381C31.8315 8.55096 32.3481 9.10051 32.7058 9.75121C33.0634 10.4019 33.2504 11.1326 33.2494 11.8751V26.1251C33.2494 30.0608 30.0601 33.2501 26.1244 33.2501H11.8744C11.1315 33.2502 10.4007 33.0626 9.74969 32.7048C9.09867 32.3471 8.54856 31.8307 8.15039 31.2035L8.31596 31.2117L8.48153 31.2144H26.1244C27.4742 31.2144 28.7686 30.6782 29.7231 29.7238C30.6775 28.7693 31.2137 27.4749 31.2137 26.1251V8.48224C31.2138 8.37269 31.2107 8.26316 31.2042 8.15381ZM11.5351 18.3215C11.1752 18.3215 10.83 18.4645 10.5755 18.719C10.3209 18.9735 10.178 19.3187 10.178 19.6787C10.178 20.0386 10.3209 20.3838 10.5755 20.6383C10.83 20.8928 11.1752 21.0358 11.5351 21.0358C11.895 21.0358 12.2402 20.8928 12.4947 20.6383C12.7493 20.3838 12.8922 20.0386 12.8922 19.6787C12.8922 19.3187 12.7493 18.9735 12.4947 18.719C12.2402 18.4645 11.895 18.3215 11.5351 18.3215Z" fill="white"/>
<path d="M25.4463 4.07153H8.482C7.31221 4.07153 6.19033 4.53623 5.36316 5.3634C4.53599 6.19057 4.07129 7.31245 4.07129 8.48225V25.4465C4.07129 26.0258 4.18538 26.5993 4.40703 27.1344C4.62869 27.6696 4.95358 28.1558 5.36316 28.5654C5.77273 28.975 6.25896 29.2998 6.7941 29.5215C7.32923 29.7432 7.90278 29.8572 8.482 29.8572H25.4463C26.0255 29.8572 26.5991 29.7432 27.1342 29.5215C27.6693 29.2998 28.1556 28.975 28.5651 28.5654C28.9747 28.1558 29.2996 27.6696 29.5213 27.1344C29.7429 26.5993 29.857 26.0258 29.857 25.4465V8.48225C29.857 7.90302 29.7429 7.32947 29.5213 6.79434C29.2996 6.25921 28.9747 5.77297 28.5651 5.3634C28.1556 4.95383 27.6693 4.62894 27.1342 4.40728C26.5991 4.18562 26.0255 4.07153 25.4463 4.07153ZM8.14272 19.6787C8.14272 18.7788 8.50018 17.9158 9.13646 17.2796C9.77275 16.6433 10.6357 16.2858 11.5356 16.2858C12.4354 16.2858 13.2984 16.6433 13.9347 17.2796C14.571 17.9158 14.9284 18.7788 14.9284 19.6787C14.9284 20.5785 14.571 21.4415 13.9347 22.0778C13.2984 22.7141 12.4354 23.0715 11.5356 23.0715C10.6357 23.0715 9.77275 22.7141 9.13646 22.0778C8.50018 21.4415 8.14272 20.5785 8.14272 19.6787ZM17.6427 19.3394C17.6427 19.0694 17.75 18.8105 17.9408 18.6197C18.1317 18.4288 18.3906 18.3215 18.6606 18.3215H25.4463C25.7162 18.3215 25.9751 18.4288 26.166 18.6197C26.3569 18.8105 26.4641 19.0694 26.4641 19.3394C26.4641 19.6093 26.3569 19.8682 26.166 20.0591C25.9751 20.25 25.7162 20.3572 25.4463 20.3572H18.6606C18.3906 20.3572 18.1317 20.25 17.9408 20.0591C17.75 19.8682 17.6427 19.6093 17.6427 19.3394ZM8.14272 12.5537C8.14272 12.2837 8.24996 12.0248 8.44084 11.8339C8.63173 11.6431 8.89062 11.5358 9.16057 11.5358H25.4463C25.7162 11.5358 25.9751 11.6431 26.166 11.8339C26.3569 12.0248 26.4641 12.2837 26.4641 12.5537C26.4641 12.8236 26.3569 13.0825 26.166 13.2734C25.9751 13.4643 25.7162 13.5715 25.4463 13.5715H9.16057C8.89062 13.5715 8.63173 13.4643 8.44084 13.2734C8.24996 13.0825 8.14272 12.8236 8.14272 12.5537Z" fill="white"/>
</svg>
