<svg width="38" height="38" viewBox="0 0 38 38" fill="none" xmlns="http://www.w3.org/2000/svg">
<path d="M31.2042 8.15369C31.8315 8.55084 32.3481 9.10038 32.7058 9.75109C33.0634 10.4018 33.2504 11.1325 33.2494 11.875V26.125C33.2494 30.0607 30.0601 33.25 26.1244 33.25H11.8744C11.1315 33.25 10.4007 33.0625 9.74969 32.7047C9.09867 32.3469 8.54856 31.8305 8.15039 31.2034L8.31596 31.2115L8.48153 31.2143H26.1244C27.4742 31.2143 28.7686 30.6781 29.7231 29.7236C30.6775 28.7692 31.2137 27.4747 31.2137 26.125V8.48212C31.2138 8.37257 31.2107 8.26304 31.2042 8.15369ZM11.5351 18.3214C11.1752 18.3214 10.83 18.4644 10.5755 18.7189C10.3209 18.9734 10.178 19.3186 10.178 19.6785C10.178 20.0385 10.3209 20.3837 10.5755 20.6382C10.83 20.8927 11.1752 21.0357 11.5351 21.0357C11.895 21.0357 12.2402 20.8927 12.4947 20.6382C12.7493 20.3837 12.8922 20.0385 12.8922 19.6785C12.8922 19.3186 12.7493 18.9734 12.4947 18.7189C12.2402 18.4644 11.895 18.3214 11.5351 18.3214Z" fill="#BD0A0A"/>
<path d="M25.4463 4.07141H8.482C7.31221 4.07141 6.19033 4.53611 5.36316 5.36328C4.53599 6.19045 4.07129 7.31233 4.07129 8.48213V25.4464C4.07129 26.0256 4.18538 26.5992 4.40703 27.1343C4.62869 27.6695 4.95358 28.1557 5.36316 28.5653C5.77273 28.9748 6.25896 29.2997 6.7941 29.5214C7.32923 29.743 7.90278 29.8571 8.482 29.8571H25.4463C26.0255 29.8571 26.5991 29.743 27.1342 29.5214C27.6693 29.2997 28.1556 28.9748 28.5651 28.5653C28.9747 28.1557 29.2996 27.6695 29.5213 27.1343C29.7429 26.5992 29.857 26.0256 29.857 25.4464V8.48213C29.857 7.9029 29.7429 7.32935 29.5213 6.79422C29.2996 6.25909 28.9747 5.77285 28.5651 5.36328C28.1556 4.95371 27.6693 4.62882 27.1342 4.40716C26.5991 4.1855 26.0255 4.07141 25.4463 4.07141ZM8.14272 19.6786C8.14272 18.7787 8.50018 17.9157 9.13646 17.2794C9.77275 16.6432 10.6357 16.2857 11.5356 16.2857C12.4354 16.2857 13.2984 16.6432 13.9347 17.2794C14.571 17.9157 14.9284 18.7787 14.9284 19.6786C14.9284 20.5784 14.571 21.4414 13.9347 22.0777C13.2984 22.714 12.4354 23.0714 11.5356 23.0714C10.6357 23.0714 9.77275 22.714 9.13646 22.0777C8.50018 21.4414 8.14272 20.5784 8.14272 19.6786ZM17.6427 19.3393C17.6427 19.0693 17.75 18.8104 17.9408 18.6195C18.1317 18.4287 18.3906 18.3214 18.6606 18.3214H25.4463C25.7162 18.3214 25.9751 18.4287 26.166 18.6195C26.3569 18.8104 26.4641 19.0693 26.4641 19.3393C26.4641 19.6092 26.3569 19.8681 26.166 20.059C25.9751 20.2499 25.7162 20.3571 25.4463 20.3571H18.6606C18.3906 20.3571 18.1317 20.2499 17.9408 20.059C17.75 19.8681 17.6427 19.6092 17.6427 19.3393ZM8.14272 12.5536C8.14272 12.2836 8.24996 12.0247 8.44084 11.8338C8.63173 11.6429 8.89062 11.5357 9.16057 11.5357H25.4463C25.7162 11.5357 25.9751 11.6429 26.166 11.8338C26.3569 12.0247 26.4641 12.2836 26.4641 12.5536C26.4641 12.8235 26.3569 13.0824 26.166 13.2733C25.9751 13.4642 25.7162 13.5714 25.4463 13.5714H9.16057C8.89062 13.5714 8.63173 13.4642 8.44084 13.2733C8.24996 13.0824 8.14272 12.8235 8.14272 12.5536Z" fill="#BD0A0A"/>
</svg>
