<svg width="21" height="17" viewBox="0 0 21 17" fill="none" xmlns="http://www.w3.org/2000/svg">
<g clip-path="url(#clip0_252_866)">
<path d="M19.9761 0.953979H13.9761C13.5641 0.953979 12.9871 1.19298 12.6961 1.48398L5.2571 8.92298C5.11683 9.0639 5.03809 9.25465 5.03809 9.45348C5.03809 9.65231 5.11683 9.84305 5.2571 9.98398L11.6961 16.423C11.837 16.5632 12.0278 16.642 12.2266 16.642C12.4254 16.642 12.6162 16.5632 12.7571 16.423L20.1961 8.98398C20.4881 8.69198 20.7261 8.11598 20.7261 7.70398V1.70398C20.7256 1.50523 20.6464 1.31477 20.5058 1.17423C20.3653 1.03369 20.1749 0.954507 19.9761 0.953979V0.953979ZM16.2261 6.95398C16.0291 6.95391 15.8339 6.91504 15.6519 6.83957C15.4699 6.7641 15.3045 6.65352 15.1652 6.51414C15.0259 6.37476 14.9155 6.20931 14.8401 6.02723C14.7648 5.84516 14.726 5.65003 14.7261 5.45298C14.7262 5.25593 14.765 5.06082 14.8405 4.8788C14.916 4.69678 15.0266 4.5314 15.1659 4.39211C15.3053 4.25282 15.4708 4.14235 15.6528 4.06701C15.8349 3.99166 16.0301 3.95291 16.2271 3.95298C16.6251 3.95311 17.0067 4.11133 17.288 4.39282C17.5693 4.67431 17.7272 5.05602 17.7271 5.45398C17.727 5.85194 17.5688 6.23354 17.2873 6.51485C17.0058 6.79615 16.6241 6.95411 16.2261 6.95398Z" fill="white"/>
<path d="M2.7261 9.45398L11.2261 0.953979H9.9761C9.5641 0.953979 8.9871 1.19298 8.6961 1.48398L1.2571 8.92298C1.11683 9.0639 1.03809 9.25465 1.03809 9.45348C1.03809 9.65231 1.11683 9.84305 1.2571 9.98398L7.6961 16.423C7.83703 16.5632 8.02777 16.642 8.2266 16.642C8.42543 16.642 8.61618 16.5632 8.7571 16.423L9.2271 15.953L2.7271 9.45298L2.7261 9.45398Z" fill="white"/>
</g>
<defs>
<clipPath id="clip0_252_866">
<rect width="20" height="16" fill="white" transform="translate(0.726074 0.953979)"/>
</clipPath>
</defs>
</svg>
