<svg width="66" height="21" viewBox="0 0 66 21" fill="none" xmlns="http://www.w3.org/2000/svg">
<path d="M34.1336 6.68662C34.096 9.6003 36.7795 11.2262 38.801 12.1929C40.878 13.1847 41.5756 13.8208 41.5674 14.7079C41.5519 16.0653 39.9107 16.6644 38.3749 16.6877C35.6954 16.7284 34.1375 15.9777 32.8989 15.41L31.9337 19.8425C33.1763 20.4044 35.4773 20.8945 37.8634 20.916C43.4644 20.916 47.1286 18.2027 47.1485 13.9959C47.1704 8.65682 39.6235 8.3613 39.675 5.97489C39.6928 5.25128 40.3964 4.47909 41.9381 4.28275C42.7012 4.18357 44.8078 4.10767 47.1962 5.18701L48.1336 0.89846C46.8492 0.439497 45.1984 1.52588e-05 43.1431 1.52588e-05C37.8714 1.52588e-05 34.1635 2.75026 34.1336 6.68662ZM57.141 0.369411C56.1183 0.369411 55.2564 0.954882 54.8718 1.85333L46.8711 20.601H52.4679L53.5817 17.5803H60.4209L61.067 20.601H66L61.6953 0.369411H57.141ZM57.924 5.83473L59.5392 13.4319H55.1157L57.924 5.83473ZM27.3477 0.369665L22.936 20.6008H28.2694L32.679 0.36916L27.3477 0.369665ZM19.4579 0.369665L13.9067 14.1398L11.6611 2.43121C11.3976 1.12415 10.3571 0.369411 9.20159 0.369411H0.127102L0 0.956905C1.86295 1.35363 3.97959 1.9935 5.26195 2.67815C6.04673 3.09638 6.27052 3.46198 6.52833 4.45581L10.7815 20.601H16.4175L25.0583 0.369411L19.4579 0.369665Z" fill="url(#paint0_linear_53_449)"/>
<defs>
<linearGradient id="paint0_linear_53_449" x1="3034.28" y1="62.8735" x2="3093.7" y2="-2085.29" gradientUnits="userSpaceOnUse">
<stop stop-color="#222357"/>
<stop offset="1" stop-color="#254AA5"/>
</linearGradient>
</defs>
</svg>
